<svg width="48" height="49" viewBox="0 0 48 49" fill="none" xmlns="http://www.w3.org/2000/svg">
<g filter="url(#filter0_d_2002_5536)">
<rect x="11.0718" y="7.93628" width="26" height="26" rx="13" fill="url(#paint0_linear_2002_5536)"/>
<g clip-path="url(#clip0_2002_5536)">
<path d="M28.005 21.9059C28.006 22.057 27.96 22.2047 27.8736 22.3286C27.7872 22.4526 27.6644 22.5467 27.5223 22.598L25.1328 23.481L24.2526 25.8724C24.2004 26.014 24.1061 26.1362 23.9824 26.2225C23.8586 26.3089 23.7113 26.3552 23.5604 26.3552C23.4095 26.3552 23.2623 26.3089 23.1385 26.2225C23.0147 26.1362 22.9204 26.014 22.8683 25.8724L21.9825 23.481L19.5912 22.6008C19.4495 22.5487 19.3273 22.4544 19.241 22.3306C19.1547 22.2068 19.1084 22.0596 19.1084 21.9087C19.1084 21.7578 19.1547 21.6105 19.241 21.4868C19.3273 21.363 19.4495 21.2687 19.5912 21.2166L21.9825 20.3308L22.8627 17.9394C22.9149 17.7978 23.0092 17.6756 23.1329 17.5893C23.2567 17.5029 23.404 17.4567 23.5549 17.4567C23.7058 17.4567 23.853 17.5029 23.9768 17.5893C24.1006 17.6756 24.1949 17.7978 24.247 17.9394L25.1328 20.3308L27.5241 21.211C27.6664 21.2628 27.789 21.3575 27.8752 21.4819C27.9613 21.6064 28.0067 21.7545 28.005 21.9059ZM25.4107 17.4585H26.1519V18.1998C26.1519 18.2981 26.191 18.3923 26.2605 18.4618C26.33 18.5313 26.4243 18.5704 26.5226 18.5704C26.6209 18.5704 26.7151 18.5313 26.7846 18.4618C26.8541 18.3923 26.8932 18.2981 26.8932 18.1998V17.4585H27.6344C27.7327 17.4585 27.827 17.4195 27.8965 17.35C27.966 17.2805 28.005 17.1862 28.005 17.0879C28.005 16.9896 27.966 16.8954 27.8965 16.8259C27.827 16.7564 27.7327 16.7173 27.6344 16.7173H26.8932V15.9761C26.8932 15.8778 26.8541 15.7835 26.7846 15.714C26.7151 15.6445 26.6209 15.6055 26.5226 15.6055C26.4243 15.6055 26.33 15.6445 26.2605 15.714C26.191 15.7835 26.1519 15.8778 26.1519 15.9761V16.7173H25.4107C25.3124 16.7173 25.2182 16.7564 25.1487 16.8259C25.0792 16.8954 25.0401 16.9896 25.0401 17.0879C25.0401 17.1862 25.0792 17.2805 25.1487 17.35C25.2182 17.4195 25.3124 17.4585 25.4107 17.4585ZM29.4875 18.941H29.1169V18.5704C29.1169 18.4721 29.0778 18.3778 29.0083 18.3083C28.9388 18.2388 28.8445 18.1998 28.7462 18.1998C28.648 18.1998 28.5537 18.2388 28.4842 18.3083C28.4147 18.3778 28.3756 18.4721 28.3756 18.5704V18.941H28.005C27.9067 18.941 27.8125 18.98 27.743 19.0495C27.6735 19.119 27.6344 19.2133 27.6344 19.3116C27.6344 19.4099 27.6735 19.5042 27.743 19.5737C27.8125 19.6432 27.9067 19.6822 28.005 19.6822H28.3756V20.0528C28.3756 20.1511 28.4147 20.2454 28.4842 20.3149C28.5537 20.3844 28.648 20.4235 28.7462 20.4235C28.8445 20.4235 28.9388 20.3844 29.0083 20.3149C29.0778 20.2454 29.1169 20.1511 29.1169 20.0528V19.6822H29.4875C29.5858 19.6822 29.68 19.6432 29.7495 19.5737C29.819 19.5042 29.8581 19.4099 29.8581 19.3116C29.8581 19.2133 29.819 19.119 29.7495 19.0495C29.68 18.98 29.5858 18.941 29.4875 18.941Z" fill="white"/>
</g>
</g>
<defs>
<filter id="filter0_d_2002_5536" x="0.238443" y="0.569612" width="47.6667" height="47.6667" filterUnits="userSpaceOnUse" color-interpolation-filters="sRGB">
<feFlood flood-opacity="0" result="BackgroundImageFix"/>
<feColorMatrix in="SourceAlpha" type="matrix" values="0 0 0 0 0 0 0 0 0 0 0 0 0 0 0 0 0 0 127 0" result="hardAlpha"/>
<feOffset dy="3.46667"/>
<feGaussianBlur stdDeviation="5.41667"/>
<feComposite in2="hardAlpha" operator="out"/>
<feColorMatrix type="matrix" values="0 0 0 0 0.309804 0 0 0 0 0.270588 0 0 0 0 0.941176 0 0 0 0.48 0"/>
<feBlend mode="normal" in2="BackgroundImageFix" result="effect1_dropShadow_2002_5536"/>
<feBlend mode="normal" in="SourceGraphic" in2="effect1_dropShadow_2002_5536" result="shape"/>
</filter>
<linearGradient id="paint0_linear_2002_5536" x1="37.0718" y1="7.93628" x2="9.93143" y2="32.7959" gradientUnits="userSpaceOnUse">
<stop stop-color="#4F45F0"/>
<stop offset="1" stop-color="#312F4C"/>
</linearGradient>
<clipPath id="clip0_2002_5536">
<rect width="11.8596" height="11.8596" fill="white" transform="translate(18.3711 15.2346)"/>
</clipPath>
</defs>
</svg>
