<svg width="13" height="13" viewBox="0 0 13 13" fill="none" xmlns="http://www.w3.org/2000/svg">
<g clip-path="url(#clip0_2002_5520)">
<path d="M10.005 6.90591C10.006 7.05702 9.96005 7.2047 9.8736 7.32865C9.78715 7.45259 9.66442 7.5467 9.52229 7.59803L7.13276 8.48102L6.25255 10.8724C6.20043 11.014 6.10612 11.1362 5.98236 11.2225C5.85859 11.3089 5.71133 11.3552 5.56043 11.3552C5.40953 11.3552 5.26227 11.3089 5.1385 11.2225C5.01474 11.1362 4.92043 11.014 4.86831 10.8724L3.98254 8.48102L1.59115 7.60081C1.44955 7.54868 1.32733 7.45438 1.24101 7.33061C1.15468 7.20685 1.1084 7.05958 1.1084 6.90869C1.1084 6.75779 1.15468 6.61053 1.24101 6.48676C1.32733 6.363 1.44955 6.26869 1.59115 6.21656L3.98254 5.3308L4.86275 2.93941C4.91487 2.7978 5.00918 2.67559 5.13295 2.58927C5.25671 2.50294 5.40397 2.45666 5.55487 2.45666C5.70577 2.45666 5.85303 2.50294 5.9768 2.58927C6.10056 2.67559 6.19487 2.7978 6.24699 2.93941L7.13276 5.3308L9.52415 6.21101C9.66638 6.2628 9.78903 6.35746 9.87516 6.48193C9.9613 6.60641 10.0067 6.75455 10.005 6.90591ZM7.41072 2.45854H8.15195V3.19977C8.15195 3.29806 8.19099 3.39233 8.2605 3.46183C8.33 3.53133 8.42427 3.57038 8.52256 3.57038C8.62086 3.57038 8.71512 3.53133 8.78463 3.46183C8.85413 3.39233 8.89318 3.29806 8.89318 3.19977V2.45854H9.6344C9.7327 2.45854 9.82696 2.41949 9.89647 2.34999C9.96597 2.28048 10.005 2.18622 10.005 2.08792C10.005 1.98963 9.96597 1.89536 9.89647 1.82586C9.82696 1.75636 9.7327 1.71731 9.6344 1.71731H8.89318V0.976083C8.89318 0.87779 8.85413 0.783523 8.78463 0.714019C8.71512 0.644515 8.62086 0.605469 8.52256 0.605469C8.42427 0.605469 8.33 0.644515 8.2605 0.714019C8.19099 0.783523 8.15195 0.87779 8.15195 0.976083V1.71731H7.41072C7.31243 1.71731 7.21816 1.75636 7.14866 1.82586C7.07915 1.89536 7.04011 1.98963 7.04011 2.08792C7.04011 2.18622 7.07915 2.28048 7.14866 2.34999C7.21816 2.41949 7.31243 2.45854 7.41072 2.45854ZM11.4875 3.94099H11.1169V3.57038C11.1169 3.47209 11.0778 3.37782 11.0083 3.30832C10.9388 3.23881 10.8445 3.19977 10.7462 3.19977C10.648 3.19977 10.5537 3.23881 10.4842 3.30832C10.4147 3.37782 10.3756 3.47209 10.3756 3.57038V3.94099H10.005C9.90672 3.94099 9.81246 3.98004 9.74295 4.04955C9.67345 4.11905 9.6344 4.21332 9.6344 4.31161C9.6344 4.4099 9.67345 4.50417 9.74295 4.57367C9.81246 4.64318 9.90672 4.68222 10.005 4.68222H10.3756V5.05284C10.3756 5.15113 10.4147 5.2454 10.4842 5.3149C10.5537 5.3844 10.648 5.42345 10.7462 5.42345C10.8445 5.42345 10.9388 5.3844 11.0083 5.3149C11.0778 5.2454 11.1169 5.15113 11.1169 5.05284V4.68222H11.4875C11.5858 4.68222 11.68 4.64318 11.7495 4.57367C11.819 4.50417 11.8581 4.4099 11.8581 4.31161C11.8581 4.21332 11.819 4.11905 11.7495 4.04955C11.68 3.98004 11.5858 3.94099 11.4875 3.94099Z" fill="white"/>
</g>
<defs>
<clipPath id="clip0_2002_5520">
<rect width="11.8596" height="11.8596" fill="white" transform="translate(0.371094 0.234619)"/>
</clipPath>
</defs>
</svg>
