<svg width="39" height="39" viewBox="0 0 39 39" fill="none" xmlns="http://www.w3.org/2000/svg">
<path d="M4.79922 28.8008C5.68287 28.8008 6.39922 28.0844 6.39922 27.2008C6.39922 26.3171 5.68287 25.6008 4.79922 25.6008C3.91556 25.6008 3.19922 26.3171 3.19922 27.2008C3.19922 28.0844 3.91556 28.8008 4.79922 28.8008Z" fill="black" stroke="black" stroke-width="2.4" stroke-linecap="round" stroke-linejoin="round"/>
<path d="M33.6015 11.7641L33.6016 26.6343C33.6016 26.983 33.4125 27.3042 33.1078 27.4735L19.6678 34.9402C19.3778 35.1013 19.0253 35.1013 18.7353 34.9402L5.29535 27.4735C4.99058 27.3042 4.80156 26.983 4.80156 26.6344L4.80153 11.7641C4.80153 11.4154 4.99055 11.0942 5.29532 10.9249L18.7353 3.45823C19.0253 3.29715 19.3778 3.29715 19.6678 3.45823L33.1078 10.9249C33.4125 11.0942 33.6015 11.4154 33.6015 11.7641Z" stroke="black" stroke-width="2.4" stroke-linecap="round" stroke-linejoin="round"/>
<path d="M5.64628 11.6698L18.7346 18.9411C19.0245 19.1022 19.3771 19.1022 19.667 18.9411L32.8008 11.6445" stroke="black" stroke-width="2.4" stroke-linecap="round" stroke-linejoin="round"/>
<path d="M19.1992 33.5996V19.1996" stroke="black" stroke-width="2.4" stroke-linecap="round" stroke-linejoin="round"/>
</svg>
