<svg width="20" height="20" viewBox="0 0 20 20" fill="none" xmlns="http://www.w3.org/2000/svg">
<g clip-path="url(#clip0_615_13164)">
<path d="M5.6001 14.8V14C5.6001 11.7909 7.39096 10 9.6001 10V10C11.8092 10 13.6001 11.7909 13.6001 14V14.8" stroke="black" stroke-width="1.25" stroke-linecap="round" stroke-linejoin="round"/>
<path d="M0.799805 14.8006V14.0006C0.799805 12.6751 1.87432 11.6006 3.1998 11.6006V11.6006" stroke="black" stroke-width="1.25" stroke-linecap="round" stroke-linejoin="round"/>
<path d="M18.3999 14.8006V14.0006C18.3999 12.6751 17.3254 11.6006 15.9999 11.6006V11.6006" stroke="black" stroke-width="1.25" stroke-linecap="round" stroke-linejoin="round"/>
<path d="M9.6002 10.0002C10.9257 10.0002 12.0002 8.92568 12.0002 7.6002C12.0002 6.27471 10.9257 5.2002 9.6002 5.2002C8.27471 5.2002 7.2002 6.27471 7.2002 7.6002C7.2002 8.92568 8.27471 10.0002 9.6002 10.0002Z" stroke="black" stroke-width="1.25" stroke-linecap="round" stroke-linejoin="round"/>
<path d="M3.2001 11.6004C4.08375 11.6004 4.8001 10.884 4.8001 10.0004C4.8001 9.11673 4.08375 8.40039 3.2001 8.40039C2.31644 8.40039 1.6001 9.11673 1.6001 10.0004C1.6001 10.884 2.31644 11.6004 3.2001 11.6004Z" stroke="black" stroke-width="1.25" stroke-linecap="round" stroke-linejoin="round"/>
<path d="M15.9999 11.6004C16.8836 11.6004 17.5999 10.884 17.5999 10.0004C17.5999 9.11673 16.8836 8.40039 15.9999 8.40039C15.1162 8.40039 14.3999 9.11673 14.3999 10.0004C14.3999 10.884 15.1162 11.6004 15.9999 11.6004Z" stroke="black" stroke-width="1.25" stroke-linecap="round" stroke-linejoin="round"/>
</g>
<defs>
<clipPath id="clip0_615_13164">
<rect width="19.2" height="19.2" fill="white" transform="translate(0 0.400391)"/>
</clipPath>
</defs>
</svg>
