<svg width="26" height="26" viewBox="0 0 26 26" fill="none" xmlns="http://www.w3.org/2000/svg">
<path d="M11.4166 10.4132C11.3829 10.312 11.3694 10.2051 11.377 10.0986C11.3845 9.9922 11.413 9.8883 11.4607 9.79285C11.5084 9.69741 11.5745 9.6123 11.6551 9.54239C11.7357 9.47248 11.8293 9.41913 11.9305 9.38539L13.1493 8.97914C13.2714 8.93842 13.4015 8.92732 13.5288 8.94673C13.6561 8.96615 13.7769 9.01553 13.8813 9.09082C13.9858 9.1661 14.0708 9.26513 14.1295 9.37974C14.1882 9.49434 14.2188 9.62125 14.2188 9.75V13.8125C14.2188 14.028 14.1331 14.2347 13.9808 14.387C13.8284 14.5394 13.6217 14.625 13.4062 14.625C13.1908 14.625 12.9841 14.5394 12.8317 14.387C12.6794 14.2347 12.5938 14.028 12.5938 13.8125V10.8773L12.4445 10.9271C12.3432 10.9609 12.2363 10.9743 12.1299 10.9668C12.0235 10.9592 11.9195 10.9308 11.8241 10.883C11.7287 10.8353 11.6436 10.7693 11.5736 10.6887C11.5037 10.608 11.4504 10.5144 11.4166 10.4132ZM25.1875 21.125C25.1875 21.3405 25.1019 21.5472 24.9495 21.6995C24.7972 21.8519 24.5905 21.9375 24.375 21.9375H1.625C1.40951 21.9375 1.20285 21.8519 1.05048 21.6995C0.898102 21.5472 0.8125 21.3405 0.8125 21.125C0.8125 20.9095 0.898102 20.7028 1.05048 20.5505C1.20285 20.3981 1.40951 20.3125 1.625 20.3125H2.4375V10.5625C2.4375 10.1315 2.6087 9.7182 2.91345 9.41345C3.2182 9.10871 3.63152 8.9375 4.0625 8.9375H8.125V5.6875C8.125 5.25652 8.29621 4.8432 8.60095 4.53845C8.9057 4.2337 9.31902 4.0625 9.75 4.0625H16.25C16.681 4.0625 17.0943 4.2337 17.399 4.53845C17.7038 4.8432 17.875 5.25652 17.875 5.6875V13H21.9375C22.3685 13 22.7818 13.1712 23.0865 13.476C23.3913 13.7807 23.5625 14.194 23.5625 14.625V20.3125H24.375C24.5905 20.3125 24.7972 20.3981 24.9495 20.5505C25.1019 20.7028 25.1875 20.9095 25.1875 21.125ZM17.875 14.625V20.3125H21.9375V14.625H17.875ZM9.75 20.3125H16.25V5.6875H9.75V20.3125ZM4.0625 20.3125H8.125V10.5625H4.0625V20.3125Z" fill="#080808"/>
</svg>
