<svg width="26" height="26" viewBox="0 0 26 26" fill="none" xmlns="http://www.w3.org/2000/svg">
<path d="M22.5634 15.5653C22.7011 15.7305 22.7677 15.9434 22.7487 16.1576C22.7296 16.3718 22.6265 16.5697 22.4618 16.7079C20.6987 18.1684 19.1245 18.6874 17.6884 18.6874C15.8013 18.6874 14.152 17.7926 12.6174 16.9608C10.0428 15.5643 7.81955 14.3578 4.58681 17.036C4.50533 17.1082 4.41016 17.1633 4.30696 17.198C4.20376 17.2328 4.09464 17.2464 3.98607 17.2381C3.8775 17.2298 3.7717 17.1998 3.67496 17.1498C3.57822 17.0999 3.49251 17.0309 3.42292 16.9472C3.35334 16.8635 3.30129 16.7666 3.26989 16.6623C3.23848 16.5581 3.22835 16.4486 3.24009 16.3403C3.25184 16.2321 3.28522 16.1273 3.33826 16.0322C3.3913 15.9371 3.46291 15.8536 3.54884 15.7867C7.62861 12.4078 10.6907 14.0683 13.3933 15.5349C15.9679 16.9314 18.1911 18.1369 21.4238 15.4587C21.5894 15.3225 21.8021 15.2574 22.0156 15.2773C22.229 15.2973 22.4259 15.4008 22.5634 15.5653ZM4.58681 10.5421C7.81955 7.86385 10.0428 9.0694 12.6174 10.4659C14.152 11.2987 15.8013 12.1924 17.6884 12.1924C19.1245 12.1924 20.6987 11.6735 22.4618 10.213C22.5477 10.1461 22.6194 10.0627 22.6724 9.96756C22.7254 9.87247 22.7588 9.76769 22.7706 9.65944C22.7823 9.55119 22.7722 9.44168 22.7408 9.33742C22.7094 9.23317 22.6573 9.13628 22.5877 9.05254C22.5181 8.96879 22.4324 8.89988 22.3357 8.84991C22.239 8.79994 22.1332 8.76992 22.0246 8.76164C21.916 8.75336 21.8069 8.76699 21.7037 8.80171C21.6005 8.83643 21.5053 8.89155 21.4238 8.96378C18.1911 11.642 15.9679 10.4354 13.3933 9.03893C10.6907 7.57338 7.62861 5.91182 3.54884 9.29081C3.39627 9.4317 3.30344 9.62568 3.28942 9.83289C3.2754 10.0401 3.34127 10.2448 3.47348 10.405C3.60569 10.5651 3.79421 10.6686 4.00032 10.6941C4.20643 10.7196 4.41448 10.6652 4.58173 10.5421H4.58681Z" fill="#080808"/>
</svg>
