<svg width="20" height="20" viewBox="0 0 20 20" fill="none" xmlns="http://www.w3.org/2000/svg">
<path d="M2.40002 8.31995V3.67995C2.40002 3.41485 2.61493 3.19995 2.88002 3.19995H16.32C16.5851 3.19995 16.8 3.41485 16.8 3.67995V8.31995C16.8 8.58505 16.5851 8.79995 16.32 8.79995H2.88002C2.61493 8.79995 2.40002 8.58505 2.40002 8.31995Z" stroke="#509999" stroke-width="1.2"/>
<path d="M11.2 17.1199V12.4799C11.2 12.2148 11.4149 11.9999 11.68 11.9999H16.32C16.585 11.9999 16.8 12.2148 16.8 12.4799V17.1199C16.8 17.385 16.585 17.5999 16.32 17.5999H11.68C11.4149 17.5999 11.2 17.385 11.2 17.1199Z" stroke="#509999" stroke-width="1.2"/>
<path d="M2.40002 17.1199V12.4799C2.40002 12.2148 2.61493 11.9999 2.88002 11.9999H7.52002C7.78512 11.9999 8.00002 12.2148 8.00002 12.4799V17.1199C8.00002 17.385 7.78512 17.5999 7.52002 17.5999H2.88002C2.61493 17.5999 2.40002 17.385 2.40002 17.1199Z" stroke="#509999" stroke-width="1.2"/>
</svg>
