<svg width="20" height="20" viewBox="0 0 20 20" fill="none" xmlns="http://www.w3.org/2000/svg">
<path d="M2.39998 15.2C2.8418 15.2 3.19998 14.8418 3.19998 14.4C3.19998 13.9581 2.8418 13.6 2.39998 13.6C1.95815 13.6 1.59998 13.9581 1.59998 14.4C1.59998 14.8418 1.95815 15.2 2.39998 15.2Z" fill="black" stroke="black" stroke-width="1.2" stroke-linecap="round" stroke-linejoin="round"/>
<path d="M16.8 6.6824L16.8 14.1175C16.8 14.2918 16.7055 14.4525 16.5532 14.5371L9.83316 18.2705C9.68819 18.351 9.51191 18.351 9.36694 18.2705L2.64694 14.5371C2.49456 14.4525 2.40005 14.2919 2.40005 14.1175L2.40003 6.6824C2.40003 6.50808 2.49454 6.34746 2.64693 6.2628L9.36694 2.52947C9.51191 2.44893 9.68819 2.44893 9.83316 2.52947L16.5531 6.2628C16.7055 6.34746 16.8 6.50808 16.8 6.6824Z" stroke="black" stroke-width="1.2" stroke-linecap="round" stroke-linejoin="round"/>
<path d="M2.82278 6.63483L9.36693 10.2705C9.5119 10.351 9.68818 10.351 9.83315 10.2705L16.4 6.62219" stroke="black" stroke-width="1.2" stroke-linecap="round" stroke-linejoin="round"/>
<path d="M9.59998 17.6V10.4" stroke="black" stroke-width="1.2" stroke-linecap="round" stroke-linejoin="round"/>
</svg>
