<svg width="20" height="20" viewBox="0 0 20 20" fill="none" xmlns="http://www.w3.org/2000/svg">
<path d="M11.0449 4.40002L10.2521 2.80303C9.98534 2.26569 9.21469 2.26569 8.94793 2.80303L8.55151 3.60153" stroke="#509999" stroke-width="1.2" stroke-linecap="round" stroke-linejoin="round"/>
<path d="M12.0088 6.34161L12.3301 6.98881L13.4919 7.15765" stroke="#509999" stroke-width="1.2" stroke-linecap="round" stroke-linejoin="round"/>
<path d="M15.8154 7.4953L16.9772 7.66414C17.5734 7.75079 17.8111 8.4795 17.3794 8.89754L16.5389 9.71151" stroke="#509999" stroke-width="1.2" stroke-linecap="round" stroke-linejoin="round"/>
<path d="M14.8578 11.3395L14.0173 12.1534L14.2157 13.3034" stroke="#509999" stroke-width="1.2" stroke-linecap="round" stroke-linejoin="round"/>
<path d="M14.6124 15.6031L14.8108 16.7531C14.9127 17.3438 14.2891 17.7942 13.7556 17.5153L12.7167 16.972" stroke="#509999" stroke-width="1.2" stroke-linecap="round" stroke-linejoin="round"/>
<path d="M8.34229 16L9.59995 15.3424L10.6389 15.8856" stroke="#509999" stroke-width="1.2" stroke-linecap="round" stroke-linejoin="round"/>
<path d="M4.53721 15.8951L4.38921 16.7531C4.28731 17.3438 4.91092 17.7942 5.44442 17.5153L6.12223 17.1609" stroke="#509999" stroke-width="1.2" stroke-linecap="round" stroke-linejoin="round"/>
<path d="M5.00208 13.2L5.18261 12.1534L4.62671 11.6151" stroke="#509999" stroke-width="1.2" stroke-linecap="round" stroke-linejoin="round"/>
<path d="M2.95898 9.99998L1.82058 8.89751C1.38891 8.47948 1.62655 7.75076 2.22279 7.66411L3.11138 7.53497" stroke="#509999" stroke-width="1.2" stroke-linecap="round" stroke-linejoin="round"/>
<path d="M5.59998 7.17328L6.86987 6.98872L7.51247 5.69434" stroke="#509999" stroke-width="1.2" stroke-linecap="round" stroke-linejoin="round"/>
</svg>
