<svg width="20" height="20" viewBox="0 0 20 20" fill="none" xmlns="http://www.w3.org/2000/svg">
<path d="M9.60005 15.2C12.251 15.2 14.4 13.0509 14.4 10.4C14.4 7.74901 12.251 5.59998 9.60005 5.59998C6.94908 5.59998 4.80005 7.74901 4.80005 10.4C4.80005 13.0509 6.94908 15.2 9.60005 15.2Z" stroke="black" stroke-width="1.2" stroke-linecap="round" stroke-linejoin="round"/>
<path d="M14.4 10.4H9.59995M7.19995 6.24219L9.59995 10.4M9.59995 10.4L7.19995 14.5579" stroke="black" stroke-width="1.2" stroke-linecap="round" stroke-linejoin="round"/>
<path d="M9.6 16C12.6928 16 15.2 13.4928 15.2 10.4C15.2 7.30725 12.6928 4.80005 9.6 4.80005C6.50721 4.80005 4 7.30725 4 10.4C4 13.4928 6.50721 16 9.6 16Z" stroke="black" stroke-width="1.2" stroke-linecap="round" stroke-linejoin="round" stroke-dasharray="0.8 2.4"/>
<path d="M9.59998 18.4C14.0183 18.4 17.6 14.8183 17.6 10.4C17.6 5.98175 14.0183 2.40002 9.59998 2.40002C5.1817 2.40002 1.59998 5.98175 1.59998 10.4C1.59998 14.8183 5.1817 18.4 9.59998 18.4Z" stroke="black" stroke-width="1.2" stroke-linecap="round" stroke-linejoin="round"/>
<path d="M9.59995 12.8C10.9254 12.8 12 11.7255 12 10.4C12 9.07452 10.9254 8 9.59995 8C8.27447 8 7.19995 9.07452 7.19995 10.4C7.19995 11.7255 8.27447 12.8 9.59995 12.8Z" stroke="black" stroke-width="1.2" stroke-linecap="round" stroke-linejoin="round"/>
</svg>
