<svg width="20" height="20" viewBox="0 0 20 20" fill="none" xmlns="http://www.w3.org/2000/svg">
<path d="M5.99998 18C8.43003 18 10.4 16.03 10.4 13.6C10.4 11.1699 8.43003 9.19995 5.99998 9.19995C3.56992 9.19995 1.59998 11.1699 1.59998 13.6C1.59998 14.4014 1.81424 15.1528 2.18862 15.8L1.81998 17.78L3.79998 17.4113C4.44716 17.7857 5.19854 18 5.99998 18Z" stroke="#509999" stroke-width="1.2" stroke-linecap="round" stroke-linejoin="round"/>
<path d="M12.2259 14.7182C13.0069 14.5924 13.7406 14.3252 14.4 13.9438L17.28 14.48L16.7438 11.6C17.2883 10.6586 17.6 9.56572 17.6 8.4C17.6 4.86538 14.7346 2 11.2 2C7.97807 2 5.31223 4.38079 4.86574 7.47907" stroke="#509999" stroke-width="1.2" stroke-linecap="round" stroke-linejoin="round"/>
</svg>
