<svg width="64" height="65" viewBox="0 0 64 65" fill="none" xmlns="http://www.w3.org/2000/svg">
<path d="M17.8273 47.9449C15.1645 49.1534 12.3235 49.9225 9.41471 50.2221C9.22265 50.2421 9.02894 50.2057 8.85721 50.1174C8.68548 50.0291 8.54317 49.8927 8.44766 49.7249C6.2923 45.9263 5.58379 41.2004 6.45887 36.0146C7.57508 29.3223 11.2046 22.6226 16.6813 17.1459C22.1579 11.6693 28.8627 8.03972 35.55 6.92351C41.2156 5.98132 46.3318 6.92351 50.2895 9.55867C50.4514 9.66503 50.5788 9.81639 50.6559 9.99415C50.733 10.1719 50.7565 10.3683 50.7234 10.5592C50.6904 10.7502 50.6024 10.9273 50.4701 11.0689C50.3378 11.2104 50.167 11.3102 49.9787 11.356C48.1156 11.8001 46.2993 12.4211 44.5543 13.2106C39.1423 15.6717 32.2237 20.9321 30.0062 32.0296C28.4873 39.5572 24.3928 44.912 17.8273 47.9449ZM55.438 15.1074C55.3426 14.94 55.2007 14.8039 55.0295 14.7156C54.8582 14.6274 54.6651 14.5907 54.4734 14.6102C51.5634 14.908 48.7213 15.6771 46.0583 16.8874C39.4928 19.9203 35.3983 25.2751 33.8918 32.7978C31.6718 43.8952 24.7558 49.1556 19.3438 51.6167C17.5988 52.4062 15.7824 53.0272 13.9193 53.4713C13.7268 53.5147 13.5516 53.6144 13.416 53.7578C13.2803 53.9011 13.1904 54.0815 13.1576 54.2761C13.1248 54.4707 13.1507 54.6706 13.2319 54.8505C13.3131 55.0303 13.4459 55.182 13.6136 55.2861C16.5644 57.255 20.1567 58.2693 24.1418 58.2693C25.5513 58.2652 26.9581 58.1455 28.3481 57.9113C35.0379 56.7951 41.7401 53.1655 47.2168 47.6889C52.6934 42.2122 56.323 35.5075 57.4392 28.8202C58.2944 23.6344 57.5933 18.906 55.438 15.1074Z" fill="white"/>
</svg>
