<svg width="38" height="38" viewBox="0 0 38 38" fill="none" xmlns="http://www.w3.org/2000/svg">
<path d="M34.234 19V27.2031C34.234 28.1355 33.8636 29.0297 33.2043 29.6891C32.545 30.3484 31.6508 30.7188 30.7184 30.7188H28.3746C27.4422 30.7188 26.548 30.3484 25.8887 29.6891C25.2294 29.0297 24.859 28.1355 24.859 27.2031V21.3438C24.859 20.4114 25.2294 19.5171 25.8887 18.8578C26.548 18.1985 27.4422 17.8281 28.3746 17.8281H31.839C31.5575 14.6378 30.0946 11.6677 27.7371 9.4999C25.3796 7.33208 22.2975 6.12291 19.0948 6.10938H18.9996C15.7836 6.10922 12.6836 7.31123 10.3084 9.47943C7.93311 11.6476 6.45411 14.6254 6.16174 17.8281H9.62463C10.557 17.8281 11.4512 18.1985 12.1106 18.8578C12.7699 19.5171 13.1403 20.4114 13.1403 21.3438V27.2031C13.1403 28.1355 12.7699 29.0297 12.1106 29.6891C11.4512 30.3484 10.557 30.7188 9.62463 30.7188H7.28088C6.34848 30.7188 5.45427 30.3484 4.79496 29.6891C4.13565 29.0297 3.76526 28.1355 3.76526 27.2031V19C3.76854 15.9823 4.66705 13.0334 6.34705 10.5265C8.02705 8.01966 10.413 6.06758 13.2029 4.91736C15.9929 3.76714 19.0613 3.47048 22.0199 4.06494C24.9785 4.6594 27.6942 6.11825 29.8234 8.25684C31.2291 9.6694 32.3423 11.3454 33.0991 13.189C33.856 15.0325 34.2416 17.0072 34.234 19Z" fill="white"/>
</svg>
