<svg width="65" height="65" viewBox="0 0 65 65" fill="none" xmlns="http://www.w3.org/2000/svg">
<path d="M56.2531 30.4261C53.6158 30.4261 51.0865 29.3784 49.2217 27.5136C47.3568 25.6487 46.3092 23.1194 46.3092 20.4821C46.3092 19.9547 46.0996 19.4488 45.7266 19.0758C45.3537 18.7029 44.8478 18.4933 44.3204 18.4933C41.683 18.4933 39.1538 17.4457 37.2889 15.5808C35.424 13.7159 34.3764 11.1867 34.3764 8.54934C34.3764 8.02188 34.1668 7.51602 33.7939 7.14305C33.4209 6.77008 32.915 6.56055 32.3876 6.56055C27.2741 6.56055 22.2754 8.07688 18.0237 10.9178C13.7719 13.7587 10.4581 17.7966 8.50126 22.5209C6.54441 27.2451 6.0324 32.4436 7.03 37.4588C8.0276 42.4741 10.49 47.0809 14.1058 50.6967C17.7216 54.3125 22.3284 56.7749 27.3436 57.7725C32.3589 58.7701 37.5573 58.2581 42.2816 56.3012C47.0059 54.3444 51.0438 51.0305 53.8847 46.7788C56.7256 42.5271 58.2419 37.5284 58.2419 32.4149C58.2419 31.8874 58.0324 31.3816 57.6594 31.0086C57.2865 30.6356 56.7806 30.4261 56.2531 30.4261ZM19.3386 25.3323C19.7562 24.9161 20.2878 24.633 20.8662 24.5188C21.4446 24.4045 22.0439 24.4642 22.5884 24.6903C23.1329 24.9164 23.5982 25.2987 23.9255 25.7891C24.2528 26.2795 24.4275 26.8558 24.4275 27.4454C24.4275 28.035 24.2528 28.6113 23.9255 29.1017C23.5982 29.5921 23.1329 29.9744 22.5884 30.2005C22.0439 30.4266 21.4446 30.4863 20.8662 30.372C20.2878 30.2578 19.7562 29.9747 19.3386 29.5585C19.0605 29.2813 18.8398 28.952 18.6892 28.5894C18.5387 28.2268 18.4612 27.838 18.4612 27.4454C18.4612 27.0528 18.5387 26.664 18.6892 26.3014C18.8398 25.9388 19.0605 25.6095 19.3386 25.3323ZM25.5536 43.4801C25.136 43.8962 24.6044 44.1793 24.026 44.2936C23.4476 44.4079 22.8483 44.3482 22.3038 44.1221C21.7593 43.896 21.294 43.5136 20.9666 43.0233C20.6393 42.5329 20.4646 41.9566 20.4646 41.367C20.4646 40.7774 20.6393 40.201 20.9666 39.7107C21.294 39.2203 21.7593 38.8379 22.3038 38.6119C22.8483 38.3858 23.4476 38.3261 24.026 38.4403C24.6044 38.5546 25.136 38.8377 25.5536 39.2539C25.8306 39.5313 26.0503 39.8605 26.2 40.2229C26.3497 40.5852 26.4265 40.9735 26.426 41.3655C26.4256 41.7576 26.3478 42.1457 26.1973 42.5076C26.0467 42.8696 25.8263 43.1984 25.5486 43.4751L25.5536 43.4801ZM31.2714 33.5361C30.8552 33.1185 30.5721 32.5869 30.4578 32.0085C30.3436 31.4301 30.4032 30.8308 30.6293 30.2863C30.8554 29.7418 31.2378 29.2765 31.7282 28.9492C32.2185 28.6218 32.7949 28.4471 33.3845 28.4471C33.974 28.4471 34.5504 28.6218 35.0408 28.9492C35.5311 29.2765 35.9135 29.7418 36.1396 30.2863C36.3657 30.8308 36.4254 31.4301 36.3111 32.0085C36.1968 32.5869 35.9137 33.1185 35.4976 33.5361C35.2201 33.8139 34.8905 34.0342 34.5277 34.1843C34.1649 34.3344 33.7761 34.4115 33.3834 34.411C32.9908 34.4106 32.6021 34.3326 32.2397 34.1816C31.8772 34.0306 31.5482 33.8096 31.2714 33.5311V33.5361ZM41.4639 45.4689C41.0463 45.885 40.5148 46.1681 39.9364 46.2824C39.358 46.3967 38.7587 46.337 38.2142 46.1109C37.6697 45.8848 37.2044 45.5024 36.877 45.0121C36.5497 44.5217 36.375 43.9454 36.375 43.3558C36.375 42.7662 36.5497 42.1898 36.877 41.6995C37.2044 41.2091 37.6697 40.8267 38.2142 40.6007C38.7587 40.3746 39.358 40.3149 39.9364 40.4291C40.5148 40.5434 41.0463 40.8265 41.4639 41.2427C41.741 41.5201 41.9606 41.8493 42.1103 42.2117C42.26 42.574 42.3369 42.9623 42.3364 43.3543C42.3359 43.7464 42.2582 44.1345 42.1076 44.4964C41.9571 44.8584 41.7367 45.1872 41.459 45.4639L41.4639 45.4689Z" fill="white"/>
</svg>
