<svg width="32" height="32" viewBox="0 0 32 32" fill="none" xmlns="http://www.w3.org/2000/svg">
<path d="M16.0002 3C13.4291 3 10.9157 3.76244 8.77784 5.19089C6.64 6.61935 4.97376 8.64968 3.98982 11.0251C3.00588 13.4006 2.74843 16.0144 3.25004 18.5362C3.75165 21.0579 4.98978 23.3743 6.80786 25.1924C8.62594 27.0105 10.9423 28.2486 13.4641 28.7502C15.9858 29.2518 18.5997 28.9944 20.9751 28.0104C23.3506 27.0265 25.3809 25.3603 26.8094 23.2224C28.2378 21.0846 29.0002 18.5712 29.0002 16C28.9966 12.5533 27.6258 9.24882 25.1886 6.81163C22.7514 4.37445 19.4469 3.00364 16.0002 3ZM16.0002 24C15.7036 24 15.4136 23.912 15.1669 23.7472C14.9202 23.5824 14.728 23.3481 14.6144 23.074C14.5009 22.7999 14.4712 22.4983 14.5291 22.2074C14.5869 21.9164 14.7298 21.6491 14.9396 21.4393C15.1494 21.2296 15.4166 21.0867 15.7076 21.0288C15.9986 20.9709 16.3002 21.0006 16.5743 21.1142C16.8484 21.2277 17.0826 21.42 17.2475 21.6666C17.4123 21.9133 17.5002 22.2033 17.5002 22.5C17.5002 22.8978 17.3422 23.2794 17.0609 23.5607C16.7796 23.842 16.3981 24 16.0002 24ZM17.0002 17.91V18C17.0002 18.2652 16.8949 18.5196 16.7074 18.7071C16.5198 18.8946 16.2655 19 16.0002 19C15.735 19 15.4807 18.8946 15.2931 18.7071C15.1056 18.5196 15.0002 18.2652 15.0002 18V17C15.0002 16.7348 15.1056 16.4804 15.2931 16.2929C15.4807 16.1054 15.735 16 16.0002 16C17.654 16 19.0002 14.875 19.0002 13.5C19.0002 12.125 17.654 11 16.0002 11C14.3465 11 13.0002 12.125 13.0002 13.5V14C13.0002 14.2652 12.8949 14.5196 12.7074 14.7071C12.5198 14.8946 12.2655 15 12.0002 15C11.735 15 11.4807 14.8946 11.2931 14.7071C11.1056 14.5196 11.0002 14.2652 11.0002 14V13.5C11.0002 11.0187 13.2427 9 16.0002 9C18.7577 9 21.0002 11.0187 21.0002 13.5C21.0002 15.6725 19.2802 17.4912 17.0002 17.91Z" fill="white"/>
</svg>
