<svg width="40" height="40" viewBox="0 0 40 40" fill="none" xmlns="http://www.w3.org/2000/svg">
<path d="M20.6211 3.85156C16.5044 3.85608 12.5576 5.49345 9.6466 8.40441C6.73563 11.3154 5.09827 15.2622 5.09375 19.3789V32.4219C5.09375 33.0808 5.3555 33.7127 5.82141 34.1786C6.28732 34.6445 6.91923 34.9062 7.57812 34.9062H20.6211C24.7392 34.9062 28.6886 33.2703 31.6006 30.3584C34.5125 27.4465 36.1484 23.497 36.1484 19.3789C36.1484 15.2608 34.5125 11.3114 31.6006 8.39942C28.6886 5.48747 24.7392 3.85156 20.6211 3.85156ZM25.5898 23.7266H15.0312C14.7018 23.7266 14.3858 23.5957 14.1529 23.3627C13.9199 23.1298 13.7891 22.8138 13.7891 22.4844C13.7891 22.1549 13.9199 21.839 14.1529 21.606C14.3858 21.3731 14.7018 21.2422 15.0312 21.2422H25.5898C25.9193 21.2422 26.2352 21.3731 26.4682 21.606C26.7012 21.839 26.832 22.1549 26.832 22.4844C26.832 22.8138 26.7012 23.1298 26.4682 23.3627C26.2352 23.5957 25.9193 23.7266 25.5898 23.7266ZM25.5898 18.7578H15.0312C14.7018 18.7578 14.3858 18.6269 14.1529 18.394C13.9199 18.161 13.7891 17.8451 13.7891 17.5156C13.7891 17.1862 13.9199 16.8702 14.1529 16.6373C14.3858 16.4043 14.7018 16.2734 15.0312 16.2734H25.5898C25.9193 16.2734 26.2352 16.4043 26.4682 16.6373C26.7012 16.8702 26.832 17.1862 26.832 17.5156C26.832 17.8451 26.7012 18.161 26.4682 18.394C26.2352 18.6269 25.9193 18.7578 25.5898 18.7578Z" fill="white"/>
</svg>
